<?xml version="1.0" encoding="utf-8"?>
<!-- Generator: Adobe Illustrator 22.0.1, SVG Export Plug-In . SVG Version: 6.00 Build 0)  -->
<svg version="1.1" id="图层_1" xmlns="http://www.w3.org/2000/svg" xmlns:xlink="http://www.w3.org/1999/xlink" x="0px" y="0px"
	 viewBox="0 0 80 80" style="enable-background:new 0 0 80 80;" xml:space="preserve">
<style type="text/css">
	.st0{fill:#F5F5F5;}
	.st1{fill:#F3CA7E;}
	.st2{fill:#17ABE3;}
	.st3{fill:#7DC5EB;}
	.st4{fill:#7CBA59;}
	.st5{fill:#1195DB;}
	.st6{fill:#E16531;}
	.st7{fill:#AAD08F;}
	.st8{fill:#EEB173;}
</style>
<circle id="椭圆形" class="st0" cx="40" cy="40" r="40"/>
<g id="分组" transform="translate(10.000000, 10.000000)">
	<path id="路径" class="st1" d="M19.1,38.9L1.3,21.2C0.5,24,0,26.9,0,30c0,3.4,0.6,6.6,1.6,9.7h18.1
		C19.5,39.4,19.3,39.2,19.1,38.9L19.1,38.9z"/>
	<path id="路径_1_" class="st2" d="M58.4,20.3H40.3c0.2,0.2,0.5,0.5,0.7,0.8l17.7,17.7C59.5,36,60,33.1,60,30
		C60,26.6,59.4,23.4,58.4,20.3L58.4,20.3z"/>
	<path id="路径_2_" class="st3" d="M56.4,15.9c-3-5.5-7.6-10-13.2-12.8L30.4,15.9H56.4z"/>
	<path id="路径_3_" class="st4" d="M3.5,44.1c2.9,5.5,7.5,10,13.2,12.8l12.8-12.8H3.5z"/>
	<path id="路径_4_" class="st5" d="M44.1,31v25.5c5.5-2.9,10-7.6,12.8-13.2L44.1,30.5C44.1,30.7,44.1,30.9,44.1,31L44.1,31z"/>
	<path id="路径_5_" class="st6" d="M30,0c-3.4,0-6.6,0.6-9.7,1.6v18.1L38.7,1.3C36,0.5,33,0,30,0L30,0z"/>
	<path id="路径_6_" class="st7" d="M21.2,58.7C24,59.5,26.9,60,30,60c3.4,0,6.6-0.6,9.6-1.6V40.3c-0.2,0.2-0.5,0.4-0.7,0.6
		L21.2,58.7L21.2,58.7z"/>
	<path id="路径_7_" class="st8" d="M15.9,3.5c-5.5,2.9-10,7.6-12.8,13.2l12.8,12.8V3.5z"/>
</g>
</svg>
