<?xml version="1.0" encoding="utf-8"?>
<!-- Generator: Adobe Illustrator 22.0.1, SVG Export Plug-In . SVG Version: 6.00 Build 0)  -->
<svg version="1.1" id="图层_1" xmlns="http://www.w3.org/2000/svg" xmlns:xlink="http://www.w3.org/1999/xlink" x="0px" y="0px"
	 viewBox="0 0 80 80" style="enable-background:new 0 0 80 80;" xml:space="preserve">
<style type="text/css">
	.st0{fill:#09BB07;}
	.st1{fill:#FFFFFF;}
</style>
<circle id="椭圆形" class="st0" cx="40" cy="40" r="40"/>
<path id="形状" class="st1" d="M32.5,50.8c-2.4,0-4.2-0.4-6.4-1.1l-6.6,3.4l1.9-5.7c-4.6-3.3-7.3-7.5-7.3-12.5
	c0-9,8.3-15.8,18.5-15.8c9,0,17,5.4,18.5,13.1c-0.7-0.1-1.2-0.2-1.8-0.2c-8.8,0-15.7,6.7-15.7,14.9c0,1.4,0.2,2.6,0.5,4
	C33.6,50.8,33,50.8,32.5,50.8L32.5,50.8z M59.6,57.2l1.3,4.8l-4.9-2.8c-1.9,0.4-3.7,1-5.6,1c-8.7,0-15.6-6.1-15.6-13.6
	c0-7.5,6.9-13.6,15.6-13.6C58.6,32.9,66,39,66,46.5C66,50.8,63.2,54.5,59.6,57.2L59.6,57.2z M45.3,40.5c-0.9,0-1.8,0.9-1.8,1.9
	c0,0.9,0.9,1.7,1.8,1.7c1.4,0,2.3-0.9,2.3-1.7C47.6,41.3,46.6,40.5,45.3,40.5z M39.3,31.6c1.4,0,2.3-0.9,2.3-2.3
	c0-1.5-0.9-2.3-2.3-2.3c-1.4,0-2.7,0.9-2.7,2.3C36.6,30.6,37.9,31.6,39.3,31.6z M26.4,26.9c-1.4,0-2.8,0.9-2.8,2.3
	c0,1.4,1.4,2.3,2.8,2.3c1.3,0,2.3-0.9,2.3-2.3C28.8,27.8,27.7,26.9,26.4,26.9z M55.5,40.5c-1,0-1.8,0.9-1.8,1.9
	c0,0.9,0.8,1.7,1.8,1.7c1.3,0,2.3-0.9,2.3-1.7C57.7,41.3,56.8,40.5,55.5,40.5z"/>
</svg>
